<svg width="207" height="55" viewBox="0 0 207 55" fill="none" xmlns="http://www.w3.org/2000/svg">
<rect x="76" width="55" height="55" rx="27.5" fill="white"/>
<path d="M103.988 13.3843C96.2594 13.3812 90 19.6374 90 27.3593C90 33.4655 93.9156 38.6561 99.3688 40.5624C100.103 40.7468 99.9906 40.2249 99.9906 39.8686V37.4468C95.75 37.9436 95.5781 35.1374 95.2938 34.6686C94.7188 33.6874 93.3594 33.4374 93.7656 32.9686C94.7313 32.4718 95.7156 33.0936 96.8563 34.778C97.6813 35.9999 99.2906 35.7936 100.106 35.5905C100.284 34.8561 100.666 34.1999 101.191 33.6905C96.7969 32.903 94.9656 30.2218 94.9656 27.0343C94.9656 25.4874 95.475 24.0655 96.475 22.9187C95.8375 21.028 96.5344 19.4093 96.6281 19.1687C98.4438 19.0062 100.331 20.4687 100.478 20.5843C101.509 20.3062 102.688 20.1593 104.006 20.1593C105.331 20.1593 106.513 20.3124 107.553 20.5937C107.906 20.3249 109.656 19.0687 111.344 19.2218C111.434 19.4624 112.116 21.0437 111.516 22.9093C112.528 24.0593 113.044 25.4937 113.044 27.0437C113.044 30.2374 111.2 32.9218 106.794 33.6968C107.171 34.0679 107.471 34.5106 107.675 34.9988C107.88 35.4871 107.985 36.0112 107.984 36.5405V40.0561C108.009 40.3374 107.984 40.6155 108.453 40.6155C113.988 38.7499 117.972 33.5218 117.972 27.3624C117.972 19.6374 111.709 13.3843 103.988 13.3843Z" fill="black"/>
<rect width="55" height="55" rx="27.5" fill="white"/>
<g clip-path="url(#clip0_3569_1342)">
<path d="M20.268 40H14.463V21.306H20.268V40ZM17.362 18.756C15.506 18.756 14 17.218 14 15.362C14 14.4703 14.3542 13.6152 14.9847 12.9847C15.6152 12.3542 16.4703 12 17.362 12C18.2537 12 19.1088 12.3542 19.7393 12.9847C20.3698 13.6152 20.724 14.4703 20.724 15.362C20.724 17.218 19.218 18.756 17.362 18.756ZM41.994 40H36.202V30.9C36.202 28.731 36.158 25.95 33.184 25.95C30.166 25.95 29.703 28.306 29.703 30.744V40H23.904V21.306H29.471V23.856H29.552C30.327 22.387 32.22 20.837 35.044 20.837C40.919 20.837 41.999 24.706 41.999 29.731V40H41.994Z" fill="black"/>
</g>
<rect x="152" width="55" height="55" rx="27.5" fill="white"/>
<path d="M179.574 32.5203C178.962 33.4818 178.375 34.4225 177.06 35.3363C176.356 35.8294 174.737 36.7929 172.436 36.7929C168.044 36.7929 164.5 33.6004 164.5 27.9876C164.5 23.0823 167.834 19.2073 172.529 19.2073C174.431 19.2073 176.121 19.8648 177.366 20.8513C178.517 21.7669 179.056 22.6828 179.526 23.5048L176.24 25.1468C176.005 24.6077 175.722 24.0438 174.995 23.434C174.196 22.7993 173.399 22.612 172.716 22.612C170.04 22.612 168.631 25.101 168.631 27.871C168.631 31.5109 170.487 33.3175 172.716 33.3175C174.877 33.3175 175.746 31.8148 176.309 30.8533L179.574 32.5204V32.5203ZM191.086 19.7235H195.5L189.748 36.2997H185.523L179.841 19.7235H184.255L187.683 31.511L191.086 19.7235Z" fill="black"/>
<defs>
<clipPath id="clip0_3569_1342">
<rect width="32" height="32" fill="white" transform="translate(12 12)"/>
</clipPath>
</defs>
</svg>
