<svg width="104" height="45" viewBox="0 0 104 45" fill="none" xmlns="http://www.w3.org/2000/svg">
<rect x="58.3994" width="45.31" height="45" rx="22.5" fill="black"/>
<path d="M84.677 15.0589C84.7013 14.9804 84.7098 14.898 84.702 14.8162C84.6942 14.7345 84.6703 14.6551 84.6316 14.5826C84.5929 14.51 84.5402 14.4457 84.4765 14.3934C84.4128 14.3411 84.3394 14.3017 84.2604 14.2776C84.1814 14.2535 84.0984 14.245 84.0161 14.2528C83.9338 14.2605 83.8538 14.2843 83.7808 14.3227C83.7077 14.3611 83.643 14.4134 83.5903 14.4767C83.5377 14.54 83.498 14.6129 83.4737 14.6914L78.4393 30.9414C78.3902 31.0998 78.4066 31.2712 78.4847 31.4177C78.5628 31.5642 78.6963 31.6739 78.8559 31.7226C79.0155 31.7714 79.188 31.7551 79.3355 31.6775C79.483 31.6 79.5935 31.4673 79.6425 31.3089L84.677 15.0589ZM77.5985 18.1826C77.6572 18.2407 77.7037 18.3096 77.7354 18.3856C77.7671 18.4615 77.7834 18.5429 77.7834 18.6251C77.7834 18.7073 77.7671 18.7887 77.7354 18.8647C77.7037 18.9406 77.6572 19.0096 77.5985 19.0676L73.6377 23.0001L77.5985 26.9326C77.7167 27.05 77.7831 27.2091 77.7831 27.3751C77.7831 27.5411 77.7167 27.7003 77.5985 27.8176C77.4804 27.935 77.3201 28.0009 77.153 28.0009C76.9859 28.0009 76.8256 27.935 76.7075 27.8176L72.3023 23.4426C72.2437 23.3846 72.1972 23.3156 72.1655 23.2397C72.1338 23.1637 72.1174 23.0823 72.1174 23.0001C72.1174 22.9179 72.1338 22.8365 72.1655 22.7606C72.1972 22.6846 72.2437 22.6157 72.3023 22.5576L76.7075 18.1826C76.7659 18.1244 76.8354 18.0782 76.9118 18.0467C76.9883 18.0152 77.0702 17.999 77.153 17.999C77.2358 17.999 77.3177 18.0152 77.3942 18.0467C77.4706 18.0782 77.5401 18.1244 77.5985 18.1826ZM85.5177 18.1826C85.4591 18.2407 85.4126 18.3096 85.3809 18.3856C85.3492 18.4615 85.3328 18.5429 85.3328 18.6251C85.3328 18.7073 85.3492 18.7887 85.3809 18.8647C85.4126 18.9406 85.4591 19.0096 85.5177 19.0676L89.4786 23.0001L85.5177 26.9326C85.4592 26.9907 85.4128 27.0597 85.3811 27.1356C85.3495 27.2116 85.3332 27.2929 85.3332 27.3751C85.3332 27.4573 85.3495 27.5387 85.3811 27.6146C85.4128 27.6905 85.4592 27.7595 85.5177 27.8176C85.5762 27.8757 85.6457 27.9218 85.7221 27.9533C85.7986 27.9847 85.8805 28.0009 85.9633 28.0009C86.046 28.0009 86.128 27.9847 86.2044 27.9533C86.2809 27.9218 86.3503 27.8757 86.4088 27.8176L90.814 23.4426C90.8726 23.3846 90.9191 23.3156 90.9508 23.2397C90.9825 23.1637 90.9988 23.0823 90.9988 23.0001C90.9988 22.9179 90.9825 22.8365 90.9508 22.7606C90.9191 22.6846 90.8726 22.6157 90.814 22.5576L86.4088 18.1826C86.3504 18.1244 86.2809 18.0782 86.2045 18.0467C86.128 18.0152 86.0461 17.999 85.9633 17.999C85.8805 17.999 85.7985 18.0152 85.7221 18.0467C85.6456 18.0782 85.5762 18.1244 85.5177 18.1826Z" fill="white"/>
<rect width="45.31" height="45" rx="22.5" fill="black"/>
<path d="M31.8293 22.2259C29.8499 18.5917 26.3787 16.3926 22.5374 16.3926C18.6961 16.3926 15.219 18.5917 13.2572 22.2259L13.0928 22.5001L13.2455 22.7801C15.2249 26.4142 18.6961 28.6134 22.5374 28.6134C26.3787 28.6134 29.8558 26.4434 31.8293 22.7801L31.982 22.5001L31.8293 22.2259ZM22.5374 27.4176C19.2306 27.4176 16.194 25.5859 14.4319 22.5001C16.194 19.4142 19.2306 17.5826 22.5374 17.5826C25.8442 17.5826 28.8456 19.4201 30.637 22.5001C28.8456 25.5859 25.8383 27.4176 22.5374 27.4176Z" fill="white"/>
<path d="M22.7078 18.5157C21.9115 18.5215 21.1347 18.7615 20.4756 19.2055C19.8165 19.6495 19.3046 20.2775 19.0047 21.0102C18.7047 21.7429 18.6302 22.5475 18.7904 23.3223C18.9506 24.097 19.3384 24.8073 19.9048 25.3633C20.4712 25.9193 21.1908 26.2962 21.9727 26.4463C22.7547 26.5963 23.5639 26.5129 24.2981 26.2065C25.0323 25.9001 25.6586 25.3845 26.0979 24.7248C26.5373 24.0651 26.7699 23.2908 26.7664 22.4999C26.7641 21.9734 26.6572 21.4525 26.4519 20.9671C26.2465 20.4818 25.9467 20.0414 25.5697 19.6713C25.1927 19.3011 24.7458 19.0086 24.2547 18.8103C23.7636 18.612 23.238 18.5119 22.7078 18.5157ZM22.7078 25.3524C22.1453 25.3466 21.597 25.1759 21.1319 24.8617C20.6667 24.5475 20.3054 24.1038 20.0933 23.5863C19.8813 23.0688 19.8279 22.5006 19.9399 21.9531C20.0519 21.4055 20.3243 20.9031 20.7229 20.5088C21.1215 20.1146 21.6285 19.8461 22.1803 19.737C22.732 19.628 23.3039 19.6834 23.8241 19.8961C24.3443 20.1088 24.7896 20.4695 25.1041 20.9327C25.4186 21.396 25.5882 21.9412 25.5917 22.4999C25.5933 22.8759 25.5197 23.2485 25.3752 23.596C25.2307 23.9436 25.0181 24.2592 24.7498 24.5245C24.4816 24.7899 24.1629 24.9997 23.8124 25.1418C23.4619 25.2839 23.0864 25.3555 22.7078 25.3524Z" fill="white"/>
</svg>
